<svg width="1096.339844" height="724.313110" viewBox="0 0 1096.34 724.313" fill="none" xmlns="http://www.w3.org/2000/svg" xmlns:xlink="http://www.w3.org/1999/xlink">
	<desc>
			Created with Pixso.
	</desc>
	<defs/>
	<path id="Vector" d="M661.13 351.09C661.13 388.58 661.13 426.07 661.13 463.56C661.13 465.03 663.55 465.14 663.55 463.56C663.55 426.07 663.55 388.58 663.55 351.09C663.55 349.51 661.13 349.51 661.13 351.09Z" fill="#E8E8E8" fill-opacity="1.000000" fill-rule="nonzero"/>
	<path id="Vector" d="M663.03 353.09C726.74 352.35 790.34 351.51 854.05 350.77C855.53 350.77 855.63 348.35 854.05 348.35C790.34 349.09 726.74 349.93 663.03 350.67C661.55 350.67 661.55 353.09 663.03 353.09Z" fill="#E8E8E8" fill-opacity="1.000000" fill-rule="nonzero"/>
	<path id="Vector" d="M662.71 464.93C678.4 464.93 694.09 464.93 709.68 464.93C711.15 464.93 711.26 462.5 709.68 462.5C693.99 462.5 678.3 462.5 662.71 462.5C661.24 462.61 661.24 464.93 662.71 464.93Z" fill="#E8E8E8" fill-opacity="1.000000" fill-rule="nonzero"/>
	<path id="Vector" d="M709.78 414.06C711.47 431.02 712.73 447.97 713.26 465.03C713.68 479.78 713.79 494.31 715.26 508.95C716.1 517.58 716.52 526.21 716.52 534.85C716.52 539.7 717.15 544.64 718.21 549.38C719.47 554.54 721.16 561.49 725.68 564.86C729.79 568.02 735.37 567.92 740.22 566.44C741.69 566.02 741.06 563.71 739.59 564.13C731.58 566.55 725.68 563.6 722.74 556.02C720.42 550.02 719.05 543.28 718.84 536.75C718.73 531.06 718.95 525.37 718.63 519.69C718 511.37 716.94 503.15 716.31 494.83C715.47 482.93 715.89 470.93 715.47 458.92C714.84 443.87 713.68 428.91 712.21 413.85C711.99 412.48 709.68 412.48 709.78 414.06Z" fill="#E8E8E8" fill-opacity="1.000000" fill-rule="nonzero"/>
	<path id="Vector" d="M711.89 417.64C712.42 412.91 713.89 409.11 718.94 407.53C722.42 406.48 726.11 406.9 729.69 407.22C731.16 407.32 731.16 405.01 729.69 404.8C724.74 404.27 719.26 403.85 714.84 406.69C710.94 409.22 709.99 413.12 709.57 417.43C709.36 419.22 711.68 419.22 711.89 417.64Z" fill="#E8E8E8" fill-opacity="1.000000" fill-rule="nonzero"/>
	<path id="Vector" d="M748.33 405.53C742.85 403.22 733.48 399.85 728.95 405.85C726.11 409.64 726.63 415.96 726.53 420.49C726.21 434.6 727.26 448.71 728.32 462.72C730.53 491.46 734.43 520 736.32 548.75C736.53 552.86 736 557.6 736.95 561.6C739.37 570.76 750.33 567.5 756.54 564.86C757.91 564.34 757.28 562.02 755.91 562.55C752.54 563.92 746.32 566.86 742.64 564.97C738.85 562.97 738.95 559.39 738.95 555.81C738.95 552.44 738.74 549.07 738.43 545.7C737.58 534.75 736.43 523.79 735.37 512.84C732.74 486.2 729.69 459.56 728.95 432.81C728.84 427.23 728.74 421.75 729.05 416.17C729.27 413.01 729.16 409.32 731.48 406.9C735.58 402.69 743.06 405.85 747.69 407.75C749.06 408.38 749.69 406.17 748.33 405.53Z" fill="#E8E8E8" fill-opacity="1.000000" fill-rule="nonzero"/>
	<path id="Vector" d="M761.49 563.39C755.28 564.65 756.12 551.17 755.7 548.12C755.07 543.7 754.33 539.27 753.59 534.96C752.22 526.74 752.22 518.53 751.8 510.21C751.38 500.1 750.01 489.99 749.8 479.88C749.48 468.4 750.01 457.03 748.96 445.66C748.33 437.55 747.8 429.33 747.38 421.12C746.96 413.43 749.8 399.85 760.44 404.38C761.81 405.01 763.07 402.9 761.59 402.37C750.54 397.64 745.48 408.27 744.96 417.85C744.53 425.33 745.8 433.23 746.22 440.81C746.54 445.97 747.17 451.13 747.17 456.29C747.27 468.72 746.96 481.25 748.01 493.68C748.85 504.42 748.96 515.26 749.91 525.9C750.75 535.69 753.38 545.28 753.91 555.18C754.22 560.12 755.38 567.07 762.02 565.81C763.6 565.28 762.96 563.07 761.49 563.39Z" fill="#E8E8E8" fill-opacity="1.000000" fill-rule="nonzero"/>
	<path id="Vector" d="M760.86 404.59C767.49 401.85 770.33 409.32 770.65 414.48C770.76 416.06 770.97 418.59 769.39 419.64C768.54 420.17 766.86 419.75 765.91 420.17C761.59 421.86 762.86 426.81 762.75 430.7C762.44 447.45 762.33 464.19 762.33 480.93C762.44 497.68 762.65 514.42 763.07 531.17C763.17 535.38 761.91 541.8 765.49 545.07C768.44 547.7 771.39 549.07 771.7 553.59C772.02 559.49 767.07 563.18 761.59 563.07C760.12 563.07 760.12 565.39 761.59 565.5C767.18 565.6 772.65 562.23 773.92 556.54C774.44 554.12 774.02 551.59 772.97 549.38C771.7 546.65 769.81 546.01 767.81 544.01C764.23 540.43 765.39 531.9 765.28 527.27C765.17 521.69 765.07 516.11 764.96 510.53C764.75 500.1 764.65 489.57 764.65 479.14C764.65 468.72 764.65 458.19 764.75 447.76C764.86 442.18 764.86 436.6 764.96 431.02C764.96 429.23 764.54 426.38 765.07 424.7C766.12 421.65 767.7 423.01 769.81 422.17C774.44 420.38 773.28 413.64 772.23 409.75C770.76 404.48 765.7 400.27 760.12 402.59C758.86 402.9 759.49 405.22 760.86 404.59Z" fill="#E8E8E8" fill-opacity="1.000000" fill-rule="nonzero"/>
	<path id="Vector" d="M853.84 350.67C853.84 383.21 853.84 415.75 853.84 448.29C853.84 449.76 856.27 449.87 856.27 448.29C856.27 415.75 856.27 383.21 856.27 350.67C856.27 349.19 853.84 349.19 853.84 350.67Z" fill="#E8E8E8" fill-opacity="1.000000" fill-rule="nonzero"/>
	<path id="Vector" d="M763.6 465.56C793.92 465.56 824.36 465.56 854.69 465.56C856.16 465.56 856.27 463.14 854.69 463.14C824.36 463.14 793.92 463.14 763.6 463.14C762.02 463.24 762.02 465.56 763.6 465.56Z" fill="#E8E8E8" fill-opacity="1.000000" fill-rule="nonzero"/>
	<path id="Vector" d="M853.84 447.02C853.84 452.71 853.84 458.29 853.84 463.98C853.84 465.45 856.27 465.56 856.27 463.98C856.27 458.29 856.27 452.71 856.27 447.02C856.27 445.45 853.84 445.45 853.84 447.02Z" fill="#E8E8E8" fill-opacity="1.000000" fill-rule="nonzero"/>
	<path id="Vector" d="M781.81 359.41C781.81 367.31 781.81 375.1 781.81 383C781.81 384.47 784.24 384.58 784.24 383C784.24 375.1 784.24 367.31 784.24 359.41C784.13 357.83 781.81 357.83 781.81 359.41Z" fill="#E8E8E8" fill-opacity="1.000000" fill-rule="nonzero"/>
	<path id="Vector" d="M783.39 385.31C800.56 385.31 817.72 385.31 834.89 385.31C836.36 385.31 836.47 382.89 834.89 382.89C817.72 382.89 800.56 382.89 783.39 382.89C781.81 383 781.81 385.31 783.39 385.31Z" fill="#E8E8E8" fill-opacity="1.000000" fill-rule="nonzero"/>
	<path id="Vector" d="M782.55 360.57C800.14 360.57 817.72 360.57 835.31 360.57C836.78 360.57 836.89 358.15 835.31 358.15C817.72 358.15 800.14 358.15 782.55 358.15C780.97 358.15 780.97 360.57 782.55 360.57Z" fill="#E8E8E8" fill-opacity="1.000000" fill-rule="nonzero"/>
	<path id="Vector" d="M835.31 359.72C835.31 367.41 835.31 375.21 835.31 382.89C835.31 384.37 837.73 384.47 837.73 382.89C837.73 375.21 837.73 367.41 837.73 359.72C837.73 358.25 835.31 358.25 835.31 359.72Z" fill="#E8E8E8" fill-opacity="1.000000" fill-rule="nonzero"/>
	<path id="Vector" d="M788.03 367.94C793.08 367.94 798.14 367.94 803.19 367.94C804.66 367.94 804.77 365.52 803.19 365.52C798.14 365.52 793.08 365.52 788.03 365.52C786.45 365.62 786.45 367.94 788.03 367.94Z" fill="#E8E8E8" fill-opacity="1.000000" fill-rule="nonzero"/>
	<path id="Vector" d="M814.14 367.2C818.25 367.2 822.25 367.2 826.36 367.2C827.83 367.2 827.94 364.78 826.36 364.78C822.25 364.78 818.25 364.78 814.14 364.78C812.67 364.78 812.67 367.2 814.14 367.2Z" fill="#E8E8E8" fill-opacity="1.000000" fill-rule="nonzero"/>
	<path id="Vector" d="M803.09 446.81C798.87 445.97 799.5 440.18 801.82 437.76C804.35 435.13 808.56 435.34 811.19 437.76C813.72 440.18 813.51 444.18 811.09 446.6C808.56 449.24 803.4 449.13 801.82 445.34C801.19 443.97 798.98 444.6 799.51 445.97C801.51 450.61 807.4 452.18 811.51 449.34C815.83 446.29 816.67 439.76 812.77 436.07C808.98 432.39 802.56 432.6 799.4 436.92C796.56 440.81 796.87 447.97 802.45 449.13C803.93 449.45 804.56 447.13 803.09 446.81Z" fill="#E8E8E8" fill-opacity="1.000000" fill-rule="nonzero"/>
	<path id="Vector" d="M828.46 447.02C826.25 444.71 823.62 441.13 825.62 437.86C827.41 434.81 832.36 435.44 834.89 437.13C837.73 439.02 838.57 442.92 836.26 445.55C833.84 448.5 829.62 447.97 827.2 445.34C826.15 444.18 824.46 445.87 825.52 447.02C828.57 450.39 834.15 451.03 837.52 447.66C840.89 444.29 840.68 438.81 837.1 435.76C833.84 433.02 827.62 432.18 824.46 435.44C820.46 439.55 823.52 445.23 826.78 448.6C827.83 449.87 829.52 448.18 828.46 447.02Z" fill="#E8E8E8" fill-opacity="1.000000" fill-rule="nonzero"/>
	<path id="Vector" d="M669.98 360.99C669.98 387 669.98 413.12 669.98 439.13C669.98 440.6 672.4 440.71 672.4 439.13C672.4 413.12 672.4 387 672.4 360.99C672.4 359.51 669.98 359.51 669.98 360.99Z" fill="#E8E8E8" fill-opacity="1.000000" fill-rule="nonzero"/>
	<path id="Vector" d="M671.24 362.15C691.35 362.15 711.47 362.15 731.58 362.15C733.06 362.15 733.16 359.72 731.58 359.72C711.47 359.72 691.35 359.72 671.24 359.72C669.66 359.83 669.66 362.15 671.24 362.15Z" fill="#E8E8E8" fill-opacity="1.000000" fill-rule="nonzero"/>
	<path id="Vector" d="M681.56 370.26C681.46 369.94 681.67 369.41 681.98 369.2C682.4 368.89 682.93 369.1 683.25 369.52C683.88 370.47 682.51 370.99 681.77 370.47C680.51 369.62 679.35 371.62 680.61 372.47C681.88 373.31 683.67 373.1 684.83 372.15C686.09 370.99 686.09 369.2 685.14 367.83C684.09 366.57 682.3 366.15 680.93 367.1C679.56 368.04 679.03 369.83 679.77 371.31C679.98 371.94 680.93 372.05 681.35 371.73C681.77 371.52 681.88 370.89 681.56 370.26Z" fill="#E8E8E8" fill-opacity="1.000000" fill-rule="nonzero"/>
	<path id="Vector" d="M566.88 258.74C566.88 263.9 566.88 269.06 566.88 274.22C566.88 275.69 569.3 275.79 569.3 274.22C569.3 269.06 569.3 263.9 569.3 258.74C569.2 257.26 566.88 257.26 566.88 258.74Z" fill="#E8E8E8" fill-opacity="1.000000" fill-rule="nonzero"/>
	<path id="Vector" d="M568.88 259.16C654.81 259.16 740.74 259.16 826.67 259.16C828.15 259.16 828.25 256.73 826.67 256.73C740.74 256.73 654.81 256.73 568.88 256.73C567.41 256.73 567.41 259.16 568.88 259.16Z" fill="#E8E8E8" fill-opacity="1.000000" fill-rule="nonzero"/>
	<path id="Vector" d="M570.57 276.22C655.44 276.22 740.22 276.22 825.09 276.22C826.57 276.22 826.67 273.79 825.09 273.79C740.22 273.79 655.44 273.79 570.57 273.79C568.99 273.79 568.99 276.22 570.57 276.22Z" fill="#E8E8E8" fill-opacity="1.000000" fill-rule="nonzero"/>
	<path id="Vector" d="M825.52 259.58C825.52 264.42 825.52 269.37 825.52 274.22C825.52 275.69 827.94 275.79 827.94 274.22C827.94 269.37 827.94 264.42 827.94 259.58C827.94 258.1 825.52 258.1 825.52 259.58Z" fill="#E8E8E8" fill-opacity="1.000000" fill-rule="nonzero"/>
	<path id="Vector" d="M570.78 161.22C570.78 165.75 570.78 170.38 570.78 174.91C570.78 176.39 573.2 176.49 573.2 174.91C573.2 170.38 573.2 165.75 573.2 161.22C573.09 159.75 570.78 159.75 570.78 161.22Z" fill="#E8E8E8" fill-opacity="1.000000" fill-rule="nonzero"/>
	<path id="Vector" d="M573.3 163.12C656.92 163.12 740.64 163.12 824.25 163.12C825.73 163.12 825.83 160.69 824.25 160.69C740.64 160.69 656.92 160.69 573.3 160.69C571.83 160.69 571.83 163.12 573.3 163.12Z" fill="#E8E8E8" fill-opacity="1.000000" fill-rule="nonzero"/>
	<path id="Vector" d="M572.67 178.18C655.66 178.18 738.64 178.18 821.51 178.18C822.99 178.18 823.09 175.75 821.51 175.75C738.53 175.75 655.55 175.75 572.67 175.75C571.09 175.75 571.09 178.18 572.67 178.18Z" fill="#E8E8E8" fill-opacity="1.000000" fill-rule="nonzero"/>
	<path id="Vector" d="M823.09 162.59C823.09 167.12 823.09 171.75 823.09 176.28C823.09 177.75 825.52 177.86 825.52 176.28C825.52 171.75 825.52 167.12 825.52 162.59C825.52 161.12 823.09 161.01 823.09 162.59Z" fill="#E8E8E8" fill-opacity="1.000000" fill-rule="nonzero"/>
	<path id="Vector" d="M599.95 160.17C599.95 155.85 599.95 151.43 600.05 147.11C599.63 147.53 599.21 147.95 598.89 148.27C651.13 144.58 703.68 145.11 755.8 149.95C755.38 149.53 754.96 149.11 754.64 148.79C755.17 153.11 755.8 157.43 756.33 161.75C756.54 163.22 758.86 163.22 758.75 161.75C758.22 157.43 757.59 153.11 757.07 148.79C756.96 148.16 756.65 147.64 755.91 147.64C703.78 142.79 651.23 142.27 599 145.95C598.37 145.95 597.84 146.48 597.84 147.11C597.84 151.43 597.84 155.85 597.74 160.17C597.63 161.75 599.95 161.75 599.95 160.17Z" fill="#E8E8E8" fill-opacity="1.000000" fill-rule="nonzero"/>
	<path id="Vector" d="M647.76 144.37C648.49 142.37 648.07 140.79 648.39 138.89C649.34 134.05 653.44 133.74 657.66 133.53C663.87 133.31 670.08 133.1 676.3 132.89C689.46 132.47 702.52 132.05 715.68 131.63C728.32 131.21 741.06 130.58 753.7 130.47C760.23 130.37 766.86 130.58 773.39 131.63C778.34 132.47 779.6 135.42 780.13 140.05C780.55 143 780.76 145.95 780.97 149C781.39 148.58 781.81 148.16 782.13 147.85C772.86 147.95 763.7 147.42 754.54 146.48C753.06 146.27 753.06 148.69 754.54 148.9C763.7 149.85 772.86 150.37 782.13 150.27C782.76 150.27 783.39 149.74 783.29 149.11C782.97 144.48 783.39 136.68 780.76 132.58C778.23 128.79 771.7 129.1 767.7 128.68C751.17 127.21 734.21 128.79 717.68 129.31C701.04 129.84 684.51 130.47 667.87 131C663.76 131.1 659.55 131.31 655.44 131.42C653.34 131.52 650.81 131.21 648.81 132.16C644.39 134.37 646.7 140.16 645.34 143.85C645.02 145.11 647.34 145.74 647.76 144.37Z" fill="#E8E8E8" fill-opacity="1.000000" fill-rule="nonzero"/>
	<path id="Vector" d="M711.26 131.95C710.31 132.26 710.2 132.79 710.94 133.42C711.05 133.63 711.26 133.95 711.36 134.16C711.89 135.21 712.31 136.37 712.52 137.53C713.05 139.74 713.15 141.95 712.84 144.27C712.63 145.74 714.94 146.37 715.15 144.9C715.79 140.58 715.26 136.37 713.26 132.58C712.73 131.52 711.99 130.05 710.63 130.16C709.57 130.16 708.94 131 708.94 131.95C708.94 133.42 711.36 133.42 711.26 131.95Z" fill="#E8E8E8" fill-opacity="1.000000" fill-rule="nonzero"/>
	<path id="Vector" d="M732.21 129.73C735.37 135 735.9 141 733.69 146.79C733.16 148.27 735.48 148.79 736 147.42C738.43 141.11 737.79 134.37 734.32 128.58C733.48 127.21 731.48 128.47 732.21 129.73Z" fill="#E8E8E8" fill-opacity="1.000000" fill-rule="nonzero"/>
	<path id="Vector" d="M703.89 130.05C704.83 128.26 702.52 122.05 702.2 119.84C701.67 116.47 701.36 113.1 701.25 109.73C701.15 107.41 700.73 107.3 702.83 106.04C703.89 105.51 705.57 105.41 706.73 105.2C710.52 104.46 714.42 103.83 718.31 103.62C722.74 103.3 734.64 101.41 736.95 106.36C738.11 108.88 737.69 113.62 737.58 116.36C737.48 120.15 737.16 123.94 736.53 127.73C736.32 129.21 738.64 129.84 738.85 128.37C739.69 123.1 740.11 117.83 739.9 112.46C739.8 109.51 740.01 105.2 737.58 102.99C735.06 100.67 730.42 101.09 727.26 100.99C721.47 100.88 715.68 101.3 709.99 102.25C707.15 102.67 700.62 102.67 699.04 105.51C697.36 108.36 699.25 115.41 699.57 118.36C699.88 121.31 699.88 128.89 702.31 130.68C703.68 131.73 705.04 131.31 705.68 129.73C705.89 129.31 705.89 128.68 705.47 128.26C704.1 127 702.62 127.1 701.78 128.79C701.15 130.16 703.15 131.42 703.89 130.05Z" fill="#E8E8E8" fill-opacity="1.000000" fill-rule="nonzero"/>
	<path id="Vector" d="M706.73 102.67C705.78 98.77 703.04 95.61 701.57 91.82C700.94 90.24 700.41 88.77 699.99 87.08C699.88 86.56 699.78 85.93 699.67 85.4C698.52 83.08 699.25 81.5 701.67 80.77C702.62 81.82 704.1 80.45 703.57 79.29C700.52 73.39 698.94 66.97 699.36 60.23C699.57 56.33 699.36 56.44 702.94 54.75C706.31 53.07 707.57 53.6 710.2 56.33C712.42 58.55 713.78 61.81 714.84 64.65C719.05 76.24 720.74 88.98 721.05 101.2C721.05 102.67 723.47 102.78 723.47 101.2C723.16 91.19 721.79 81.29 719.37 71.5C717.58 64.65 715.36 55.91 708.84 52.02C704.1 49.28 699.04 50.75 697.67 56.12C695.57 64.13 697.99 73.29 701.67 80.45C702.31 79.92 702.94 79.5 703.57 78.98C699.78 74.87 696.94 80.56 697.25 84.03C697.88 90.35 701.46 100.35 707.15 103.93C707.47 104.14 707.99 104.14 708.31 103.93C708.41 103.83 708.63 103.72 708.73 103.62C709.15 103.3 709.36 102.88 709.26 102.25C709.26 102.14 709.15 101.93 709.15 101.83C708.62 100.56 706.41 101.2 706.73 102.67Z" fill="#E8E8E8" fill-opacity="1.000000" fill-rule="nonzero"/>
	<path id="Vector" d="M720.1 77.5C719.26 74.24 719.89 71.08 720.63 67.81C721.37 64.76 725.05 56.65 729.26 61.92C730.11 62.97 731.48 61.81 731.27 60.76C735.27 59.81 737.27 60.65 737.06 63.39C737.16 64.02 737.16 64.76 737.16 65.5C737.16 67.08 737.06 68.66 736.95 70.23C736.64 74.13 736.22 77.92 735.58 81.71C734.53 88.24 732.85 94.67 730.84 100.99C730.42 102.46 732.63 103.09 733.16 101.62C735.37 94.67 737.16 87.61 738.22 80.34C739.06 74.66 740.43 67.92 739.37 62.13C738.85 59.07 736.64 55.49 732.95 55.81C730 56.02 728.53 58.65 728.95 61.39C729.58 60.97 730.32 60.65 730.95 60.23C728.32 56.76 723.37 57.7 720.84 60.86C717.47 65.07 716.63 73.08 717.79 78.03C718.1 79.61 720.42 78.98 720.1 77.5Z" fill="#E8E8E8" fill-opacity="1.000000" fill-rule="nonzero"/>
	<path id="Vector" d="M634.49 146.79C636.07 148.06 636.28 151.32 636.59 153.22C637.02 155.64 637.23 158.06 637.23 160.59C637.23 162.06 639.65 162.17 639.65 160.59C639.65 157.53 639.33 154.48 638.7 151.53C638.28 149.43 637.86 146.58 636.17 145.11C635.02 144.16 633.33 145.85 634.49 146.79Z" fill="#E8E8E8" fill-opacity="1.000000" fill-rule="nonzero"/>
	<path id="Vector" d="M662.4 145.32C664.5 150.27 665.13 155.53 664.19 160.8C663.87 162.27 666.19 162.91 666.5 161.43C667.56 155.74 666.92 150.06 664.71 144.69C664.19 143.32 661.87 143.95 662.4 145.32Z" fill="#E8E8E8" fill-opacity="1.000000" fill-rule="nonzero"/>
	<path id="Vector" d="M0 2C0 84.03 0 166.17 0 248.2C0 271.37 0 294.54 0 317.6C0 319.08 2.42 319.18 2.42 317.6C2.42 235.57 2.42 153.43 2.42 71.39C2.42 48.23 2.42 25.06 2.42 2C2.42 0.42 0 0.42 0 2Z" fill="#E8E8E8" fill-opacity="1.000000" fill-rule="nonzero"/>
	<path id="Vector" d="M2.73 2.42C81.08 2.42 159.43 2.42 237.88 2.42C260.32 2.42 282.64 2.42 305.07 2.42C306.54 2.42 306.65 0 305.07 0C226.72 0 148.37 0 69.92 0C47.49 0 25.16 0 2.73 0C1.26 0.1 1.26 2.42 2.73 2.42Z" fill="#E8E8E8" fill-opacity="1.000000" fill-rule="nonzero"/>
	<path id="Vector" d="M303.81 2.73C304.12 85.29 304.23 167.86 304.02 250.42C303.91 273.69 303.91 296.86 303.81 320.13C303.81 321.6 306.12 321.6 306.23 320.13C306.54 237.67 306.65 155.22 306.44 72.76C306.33 49.38 306.33 26.11 306.23 2.73C306.23 1.15 303.81 1.15 303.81 2.73Z" fill="#E8E8E8" fill-opacity="1.000000" fill-rule="nonzero"/>
	<path id="Vector" d="M2 320.34C80.87 320.34 159.85 320.34 238.73 320.34C261.05 320.34 283.38 320.34 305.81 320.34C307.28 320.34 307.39 317.92 305.81 317.92C226.93 317.92 147.95 317.92 69.08 317.92C46.75 317.92 24.43 317.92 2 317.92C0.42 317.92 0.42 320.34 2 320.34Z" fill="#E8E8E8" fill-opacity="1.000000" fill-rule="nonzero"/>
	<path id="Vector" d="M7.79 13.79C7.79 88.56 7.79 163.22 7.79 237.99C7.79 259.37 7.79 280.74 7.79 302.23C7.79 303.7 10.21 303.81 10.21 302.23C10.21 227.46 10.21 152.8 10.21 78.03C10.21 56.65 10.21 35.27 10.21 13.79C10.1 12.21 7.79 12.21 7.79 13.79Z" fill="#E8E8E8" fill-opacity="1.000000" fill-rule="nonzero"/>
	<path id="Vector" d="M10.42 15.69C83.5 15.69 156.59 15.69 229.78 15.69C250.42 15.69 271.06 15.69 291.7 15.69C293.17 15.69 293.28 13.26 291.7 13.26C218.61 13.26 145.53 13.26 72.34 13.26C51.7 13.26 31.06 13.26 10.42 13.26C8.84 13.26 8.84 15.69 10.42 15.69Z" fill="#E8E8E8" fill-opacity="1.000000" fill-rule="nonzero"/>
	<path id="Vector" d="M9.68 305.49C80.13 305.49 150.48 305.49 220.93 305.49C240.94 305.49 260.84 305.49 280.85 305.49C282.32 305.49 282.43 303.07 280.85 303.07C210.4 303.07 140.05 303.07 69.6 303.07C49.59 303.07 29.69 303.07 9.68 303.07C8.1 303.07 8.1 305.49 9.68 305.49Z" fill="#E8E8E8" fill-opacity="1.000000" fill-rule="nonzero"/>
	<path id="Vector" d="M290.43 16.63C290.43 90.88 290.43 165.01 290.43 239.25C290.43 260.21 290.43 281.27 290.43 302.23C290.43 303.7 292.85 303.81 292.85 302.23C292.85 227.99 292.85 153.85 292.85 79.61C292.85 58.65 292.85 37.59 292.85 16.63C292.75 15.05 290.43 15.05 290.43 16.63Z" fill="#E8E8E8" fill-opacity="1.000000" fill-rule="nonzero"/>
	<path id="Vector" d="M188.6 16.42C145.21 70.76 101.83 125 58.55 179.33C57.6 180.49 59.28 182.18 60.23 181.02C103.62 126.68 147 72.45 190.29 18.11C191.23 16.84 189.55 15.16 188.6 16.42Z" fill="#E8E8E8" fill-opacity="1.000000" fill-rule="nonzero"/>
	<path id="Vector" d="M239.36 19.48C183.44 86.45 127.63 153.43 71.71 220.4C55.81 239.46 39.8 258.63 23.9 277.69C22.95 278.85 24.64 280.53 25.58 279.38C81.5 212.4 137.32 145.42 193.23 78.45C209.14 59.39 225.14 40.22 241.04 21.16C241.99 20 240.31 18.32 239.36 19.48Z" fill="#E8E8E8" fill-opacity="1.000000" fill-rule="nonzero"/>
	<path id="Vector" d="M286.43 121.73C260.63 156.27 235.15 191.02 209.98 226.09C209.14 227.35 211.14 228.51 211.98 227.25C237.04 192.18 262.53 157.43 288.43 122.89C289.38 121.73 287.27 120.57 286.43 121.73Z" fill="#E8E8E8" fill-opacity="1.000000" fill-rule="nonzero"/>
	<path id="Vector" d="M705.76 633C756.52 614.57 807.07 643.11 855.09 656.9C904.8 671.22 956.92 668.06 1007.26 658.27C1036.96 652.48 1066.13 644.58 1095.19 636.58C1097.19 636.05 1096.35 633 1094.35 633.52C1043.06 647.64 990.94 661.85 937.55 663.43C910.69 664.27 883.73 661.64 857.83 654.37C833.29 647.53 809.81 637.21 785.17 630.47C759.05 623.41 730.83 620.57 704.92 629.94C703.03 630.58 703.76 633.63 705.76 633Z" fill="#E8E8E8" fill-opacity="1.000000" fill-rule="nonzero"/>
	<path id="Vector" d="M77.7 259.1C75.28 258.99 71.38 259.2 66.96 260.57C65.38 261.1 56.11 264.05 56.22 268.15C56.22 269.94 58.12 271.21 60.33 272.68C64.64 275.63 68.86 276.47 75.18 277.74C80.86 278.89 85.5 279.74 88.55 280.26C91.5 283.42 96.34 287.74 103.4 290.79C105.5 291.74 115.09 295.74 127.51 294.27C130.78 293.95 133.41 293.32 135.2 292.79C132.78 298.8 129.94 306.8 127.51 316.49C125.62 324.07 122.35 337.66 122.35 355.24C122.35 381.25 129.62 401.05 133.09 409.69C136.67 418.32 140.89 428.43 150.05 439.38C156.05 446.54 169.22 462.45 191.12 467.61C193.96 468.24 200.91 469.71 214.29 468.66C224.4 467.82 247.25 464.87 278.52 448.02C294.43 439.49 316.01 427.8 335.6 404.21C351.08 385.57 374.25 348.71 362.35 334.18C360.03 331.34 356.98 330.18 354.13 329.13C343.18 325.02 329.7 327.97 305.38 342.71C292.11 350.71 290.53 353.14 252.93 380.52C244.4 386.73 232.08 395.47 214.39 398.63C203.33 400.63 198.17 398.94 195.86 398.1C183.54 393.36 178.69 380.2 175.32 370.93C168.79 353.24 170.69 337.55 171.74 330.18C173.22 318.81 176.48 309.96 181.01 297.96C186.59 282.9 188.17 283.42 191.33 272.79C194.59 261.94 198.07 249.3 193.44 236.03C191.86 231.61 189.12 223.92 181.64 220.98C176.17 218.76 170.69 220.13 168.27 220.98C166.27 213.6 164.58 205.5 163.11 196.75C160.89 183.28 160.16 170.85 160.05 160C157.53 158.42 153.42 156.42 148.26 155.47C141.52 154.21 135.94 155.16 130.25 156.53C115.09 160 105.08 162.32 92.24 169.16C86.23 172.43 78.12 177.38 69.59 184.75C70.12 196.97 71.17 209.92 72.65 223.5C74.02 235.82 75.7 247.83 77.7 259.1Z" fill="#FFFFFF" fill-opacity="1.000000" fill-rule="nonzero"/>
	<path id="Vector" d="M174.27 240.77C169.32 242.25 163.95 239.09 162.69 234.03C161.21 228.03 166.9 222.56 172.37 221.5C183.75 219.29 191.01 230.98 191.86 240.77C192.59 249.94 191.22 260.15 189.33 269.1C187.22 279 182.59 287.95 178.69 297.11C171.74 313.54 168.9 332.18 169.85 349.98C170.58 365.35 175.22 381.36 186.59 392.31C197.75 402.95 214.18 408.42 229.03 402.74C230.93 402 230.08 398.94 228.19 399.68C209.13 407.05 188.59 394.94 179.85 377.78C169.85 358.19 171.64 332.81 176.9 312.17C179.75 301.11 185.22 291.22 189.22 280.68C192.8 271.21 194.07 261.1 194.8 251.09C195.44 242.56 195.44 233.09 189.96 226.03C185.64 220.55 178.59 216.97 171.64 218.34C164.79 219.71 158.47 226.14 159.53 233.4C160.47 240.77 168.27 245.62 175.32 243.62C177.11 243.2 176.27 240.14 174.27 240.77Z" fill="#161616" fill-opacity="1.000000" fill-rule="nonzero"/>
	<path id="Vector" d="M196.6 400.1C227.24 403.58 251.14 381.15 274.21 364.61C286.63 355.66 299.48 346.82 312.96 339.55C319.8 335.87 327.07 332.71 334.65 331.02C341.29 329.55 355.08 327.13 359.51 334.18C360.56 335.87 363.3 334.29 362.24 332.6C355.71 322.28 337.07 326.6 327.7 329.65C312.43 334.71 298.64 343.97 285.37 352.93C271.68 362.19 258.94 372.62 245.25 381.89C230.82 391.57 214.39 399.05 196.6 396.94C194.49 396.63 194.59 399.79 196.6 400.1Z" fill="#161616" fill-opacity="1.000000" fill-rule="nonzero"/>
	<path id="Vector" d="M82.02 182.75C80.02 213.81 85.92 244.77 99.08 273C99.92 274.79 102.66 273.21 101.82 271.42C88.97 243.72 83.28 213.18 85.28 182.75C85.28 180.75 82.13 180.75 82.02 182.75Z" fill="#161616" fill-opacity="1.000000" fill-rule="nonzero"/>
	<path id="Vector" d="M101.08 275.42C127.62 272.58 153.42 265.2 177.43 253.62C179.22 252.78 177.64 250.04 175.85 250.88C152.37 262.26 127.09 269.52 101.08 272.26C99.08 272.47 99.08 275.63 101.08 275.42Z" fill="#161616" fill-opacity="1.000000" fill-rule="nonzero"/>
	<path id="Vector" d="M173.11 244.04C174.16 246.88 175.32 249.72 176.38 252.57C177.11 254.46 180.17 253.62 179.43 251.73C178.38 248.88 177.22 246.04 176.17 243.2C175.43 241.41 172.37 242.14 173.11 244.04Z" fill="#161616" fill-opacity="1.000000" fill-rule="nonzero"/>
	<path id="Vector" d="M158.37 161.06C160.16 180.64 159.95 201.91 167.53 220.24C168.27 222.13 171.32 221.29 170.58 219.4C163.11 201.28 163.32 180.33 161.63 161.06C161.32 159.05 158.16 159.05 158.37 161.06Z" fill="#161616" fill-opacity="1.000000" fill-rule="nonzero"/>
	<path id="Vector" d="M86.55 183.38C96.24 176.33 107.51 172.32 118.98 169.06C131.73 165.48 144.68 161.58 158.05 162.11C160.05 162.21 160.05 159.05 158.05 158.95C144.47 158.53 131.2 162.42 118.14 166.01C106.35 169.27 94.87 173.38 84.97 180.64C83.28 181.91 84.86 184.64 86.55 183.38Z" fill="#161616" fill-opacity="1.000000" fill-rule="nonzero"/>
	<path id="Vector" d="M121.41 243.93C113.51 240.04 109.19 232.14 108.24 223.61C107.19 214.03 111.4 207.39 118.98 202.02C126.25 196.75 134.78 192.86 143.52 197.28C152.16 201.6 156.05 210.76 158.37 219.61C158.89 221.61 161.95 220.76 161.42 218.76C158.79 208.55 153.84 198.23 143.63 193.81C133.73 189.49 124.14 194.12 116.14 200.12C107.93 206.23 103.92 213.92 105.29 224.24C106.45 233.61 111.4 242.35 119.93 246.57C121.62 247.62 123.2 244.88 121.41 243.93Z" fill="#161616" fill-opacity="1.000000" fill-rule="nonzero"/>
	<path id="Vector" d="M117.3 244.14C122.46 250.67 131.62 250.46 139.1 249.2C147.73 247.72 156.58 244.25 160.89 236.14C161.84 234.35 159.11 232.77 158.16 234.56C154.47 241.51 147.1 244.46 139.73 245.93C132.88 247.3 124.25 248.04 119.51 241.93C118.25 240.25 116.04 242.56 117.3 244.14Z" fill="#161616" fill-opacity="1.000000" fill-rule="nonzero"/>
	<path id="Vector" d="M158.37 218.55C159.21 221.61 159.63 224.77 159.74 227.93C159.84 229.93 163 229.93 162.9 227.93C162.79 224.45 162.26 221.08 161.42 217.71C160.89 215.71 157.84 216.55 158.37 218.55Z" fill="#161616" fill-opacity="1.000000" fill-rule="nonzero"/>
	<path id="Vector" d="M67.49 186.22C68.44 207.39 70.86 228.35 75.07 249.09C76.12 254.36 77.28 259.73 78.65 264.99C79.49 268.36 80.12 272.05 82.86 274.37C87.71 278.68 95.18 276.79 100.66 275C102.56 274.37 101.71 271.31 99.82 271.94C96.34 273.1 92.66 274.26 89.08 273.63C83.49 272.79 82.65 267.84 81.49 263.1C79.49 254.88 77.81 246.57 76.33 238.25C73.28 221.08 71.49 203.6 70.75 186.22C70.65 184.22 67.49 184.22 67.49 186.22Z" fill="#161616" fill-opacity="1.000000" fill-rule="nonzero"/>
	<path id="Vector" d="M68.96 186.86C74.33 186.65 79.49 185.8 84.55 184.12C86.44 183.49 85.6 180.43 83.71 181.06C78.86 182.64 74.02 183.59 68.86 183.7C66.96 183.8 66.96 186.96 68.96 186.86Z" fill="#161616" fill-opacity="1.000000" fill-rule="nonzero"/>
	<path id="Vector" d="M70.02 184.33C81.92 174.96 96.13 169.27 110.45 164.85C117.3 162.74 124.25 160.63 131.3 158.95C139.73 156.84 149.1 156 156.26 161.9C157.84 163.16 160.05 160.95 158.47 159.69C145.42 148.95 127.2 156.53 112.98 160.74C96.87 165.58 81.07 171.59 67.7 182.12C66.12 183.38 68.44 185.59 70.02 184.33Z" fill="#161616" fill-opacity="1.000000" fill-rule="nonzero"/>
	<path id="Vector" d="M98.97 167.58C93.71 160.11 88.97 152.21 86.65 143.26C84.23 133.99 83.92 123.88 82.97 114.4C82.76 112.4 79.6 112.4 79.81 114.4C80.86 124.2 81.07 134.52 83.6 144.1C86.02 153.26 90.87 161.48 96.24 169.16C97.4 170.85 100.13 169.27 98.97 167.58Z" fill="#161616" fill-opacity="1.000000" fill-rule="nonzero"/>
	<path id="Vector" d="M81.07 112.72C81.6 112.4 81.28 112.4 81.07 111.88C80.86 111.35 80.76 110.61 80.65 110.09C80.55 109.35 80.65 107.45 81.81 107.56C82.65 107.56 82.65 109.24 82.65 109.88C82.65 110.3 82.76 110.82 82.55 111.25C82.23 111.88 82.13 111.46 82.34 111.98C81.6 110.09 78.55 110.93 79.28 112.82C80.34 115.77 84.23 115.35 85.39 112.72C86.44 110.3 85.92 105.56 82.97 104.72C79.7 103.66 77.28 107.03 77.39 109.98C77.49 112.51 78.97 117.56 82.44 115.67C84.44 114.51 82.86 111.77 81.07 112.72Z" fill="#161616" fill-opacity="1.000000" fill-rule="nonzero"/>
	<path id="Vector" d="M124.67 115.25C129.62 128.41 131.2 142.31 128.88 156.21C128.57 158.21 131.62 159.05 131.94 157.05C134.25 142.52 132.88 128.09 127.72 114.4C126.99 112.61 123.93 113.35 124.67 115.25Z" fill="#161616" fill-opacity="1.000000" fill-rule="nonzero"/>
	<path id="Vector" d="M124.78 111.98C122.56 111.46 123.2 108.3 125.41 108.82C126.46 109.03 126.99 110.3 127.2 111.25C127.2 111.56 126.99 114.09 126.14 113.35C124.56 112.09 122.35 114.3 123.93 115.56C126.25 117.56 129.51 116.19 130.25 113.25C130.99 110.51 129.62 107.24 127.09 105.98C124.67 104.82 121.51 106.09 120.56 108.61C119.51 111.35 121.3 114.3 124.04 114.93C125.93 115.46 126.78 112.4 124.78 111.98Z" fill="#161616" fill-opacity="1.000000" fill-rule="nonzero"/>
	<path id="Vector" d="M77.81 257.83C72.02 257.2 66.22 258.25 61.27 261.31C58.33 263.1 53.48 266.78 54.54 270.89C55.69 275.52 64.33 276.37 67.91 277.31C75.07 279.21 82.34 280.26 89.71 280.9C91.71 281.1 91.71 277.84 89.71 277.74C80.65 277 71.7 275.42 63.07 272.68C60.43 271.84 56.43 271.52 59.27 266.78C60.12 265.31 62.64 264.05 64.22 263.2C68.44 260.99 73.07 260.47 77.81 260.99C79.81 261.2 79.81 258.04 77.81 257.83Z" fill="#161616" fill-opacity="1.000000" fill-rule="nonzero"/>
	<path id="Vector" d="M88.55 280.58C94.87 285 101.82 291.53 109.3 293.85C117.09 296.16 126.67 295.32 134.67 294.69C136.67 294.59 136.67 291.43 134.67 291.53C126.99 292.06 117.61 293.01 110.14 290.79C102.98 288.69 96.13 282.05 90.13 277.84C88.55 276.68 86.97 279.42 88.55 280.58Z" fill="#161616" fill-opacity="1.000000" fill-rule="nonzero"/>
	<path id="Vector" d="M132.57 293.64C115.4 338.29 117.3 394.21 144.89 434.43C157.1 452.34 175.85 466.55 197.96 469.08C221.03 471.71 245.98 464.34 266.94 455.18C290.85 444.75 312.33 429.27 330.86 410.95C332.34 409.48 330.12 407.26 328.65 408.74C297.58 439.38 255.99 463.5 211.65 466.13C159.53 469.29 131.73 417.27 126.04 372.2C122.77 345.87 126.14 319.12 135.62 294.37C136.36 292.48 133.31 291.74 132.57 293.64Z" fill="#161616" fill-opacity="1.000000" fill-rule="nonzero"/>
	<path id="Vector" d="M115.51 239.83C109.19 233.4 106.56 223.92 108.87 215.29C112.14 203.18 124.88 193.7 138.47 195.91C154.26 198.44 159.63 214.87 160.26 223.19C160.47 225.92 161 233.61 155.95 238.98C154.58 240.46 153.31 241.09 151.1 242.35C146.57 244.88 140.89 248.04 133.31 247.72C122.99 247.2 116.35 240.67 115.51 239.83Z" fill="#EC615B" fill-opacity="1.000000" fill-rule="nonzero"/>
	<g opacity="0.160000">
		<path id="Vector" d="M146.57 154.63C149.42 156.32 152.37 158 155.21 159.79C143.84 160.74 128.57 163.16 111.82 169.69C100.87 173.9 91.81 178.85 84.55 183.49C83.92 192.96 83.92 204.02 85.39 216.24C87.92 238.25 93.92 256.15 99.61 269.1C102.35 271.63 105.71 274.37 109.82 276.58C126.25 285.53 143.31 282.47 149.73 280.9C146.57 289.11 142.15 301.64 137.94 317.23C128.67 351.03 127.51 372.62 125.3 372.51C123.09 372.41 121.41 351.14 124.46 329.44C126.57 314.17 130.67 301.96 133.94 293.53C128.88 294.16 124.67 293.85 121.72 293.53C111.72 292.37 104.45 288.48 99.19 285.63C94.97 283.32 91.6 281 89.29 279.32C84.97 279 79.18 278.37 72.33 277.31C60.22 275.42 58.12 274.05 57.38 272.15C56.01 268.78 58.96 264.26 61.7 261.94C65.91 258.36 72.33 257.83 78.23 260.36C75.7 248.99 73.39 236.14 71.91 222.03C70.33 207.5 69.8 194.12 69.91 182.12C79.28 176.22 91.71 169.48 106.98 164C122.14 158.74 135.73 156 146.57 154.63Z" fill="#606060" fill-opacity="1.000000" fill-rule="nonzero"/>
	</g>
	<g opacity="0.110000">
		<path id="Vector" d="M163.11 232.56C164.9 229.51 173.64 229.82 179.22 234.03C185.85 238.98 187.75 249.3 184.91 251.62C183.22 252.88 180.06 251.83 178.27 250.67C174.59 248.25 174.48 243.93 174.48 243.51C173.85 243.51 167 243.09 164.06 237.82C163.53 236.88 162.05 234.24 163.11 232.56Z" fill="#606060" fill-opacity="1.000000" fill-rule="nonzero"/>
	</g>
	<g opacity="0.090000">
		<path id="Vector" d="M84.13 184.64C84.76 193.49 86.65 206.86 92.97 221.82C95.5 227.82 98.55 235.09 103.71 241.41C119.19 260.04 146.05 260.99 155.1 260.99C140.25 264.78 125.41 268.47 110.56 272.26C131.3 273.21 156.26 277.31 163.95 293.32C171.74 309.75 154.05 323.65 149.73 358.4C149.42 361.14 142.68 421.48 175.22 443.6C196.81 458.23 225.87 449.07 246.19 442.65C302.74 424.75 337.18 382.1 353.92 356.93C352.45 365.98 349.08 380.2 340.23 395.15C327.18 417.16 309.7 428.33 292.74 439.17C268.2 454.86 247.25 460.87 242.3 462.23C225.45 466.76 211.97 470.45 196.28 467.61C161.95 461.39 142.68 429.06 138.47 422.11C114.35 381.78 123.83 335.44 128.67 311.96C130.36 303.96 132.15 297.43 133.52 292.9C129.2 293.74 121.72 294.59 112.98 292.37C100.55 289.32 92.66 282.05 89.5 278.68C68.44 278.16 57.48 275.74 56.75 271.31C56.22 268.26 60.43 264.36 69.49 259.52C72.12 259.2 74.75 258.89 77.28 258.57C74.54 234.45 71.7 210.23 68.96 186.12C74.02 185.59 79.07 185.17 84.13 184.64Z" fill="#606060" fill-opacity="1.000000" fill-rule="nonzero"/>
	</g>
	<path id="Vector" d="M304.01 546.69C302.01 563.86 300.22 577.76 298.95 586.18C281.85 624.22 483.4 645.28 555.48 611.77C564.43 567.65 571.59 514.99 572.96 455.39C574.02 410 571.38 368.83 567.17 332.6C557.38 326.18 542.21 317.54 522.21 311.65C501.88 305.64 485.87 305.12 465.87 304.17C450.91 303.43 431.33 302.59 406.79 306.91C391.94 309.54 370.14 315.01 345.6 327.34C333.28 351.66 326.44 372.3 322.65 385.89C309.48 433.38 313.59 462.34 304.01 546.69Z" fill="#EC615B" fill-opacity="1.000000" fill-rule="nonzero"/>
	<g opacity="0.160000">
		<path id="Vector" d="M490.19 305.75C492.4 311.12 495.56 319.86 497.98 330.92C506.94 371.88 494.51 393.57 489.03 441.7C483.03 494.04 495.46 497.09 486.08 533.32C478.08 564.38 434.59 613.41 423.01 627.73C507.28 627.73 517.81 624.92 555.59 612.93C556.85 606.08 558.54 596.71 560.33 585.44C562.75 570.81 567.07 544.06 569.91 516.57C573.49 481.72 573.49 454.76 573.49 434.01C573.49 406.42 572.23 372.2 568.12 332.81C563.8 330.07 557.8 326.6 550.43 322.91C542.53 319.02 531.05 313.44 515.36 309.64C508.94 308.06 500.51 306.38 490.19 305.75Z" fill="#606060" fill-opacity="1.000000" fill-rule="nonzero"/>
	</g>
	<g opacity="0.130000">
		<path id="Vector" d="M567.07 333.86C563.7 348.71 558.75 371.67 553.9 400.1C542.53 466.76 544.74 487.3 533.79 518.78C526.1 540.9 493.15 596 458.82 628.43C507.28 628.43 527.64 617.9 554.53 611.77C563.17 572.49 567.49 538.48 569.7 512.15C573.91 463.08 572.44 424.43 571.38 396.1C570.33 370.93 568.65 349.66 567.07 333.86Z" fill="#606060" fill-opacity="1.000000" fill-rule="nonzero"/>
	</g>
	<path id="Vector" d="M542.53 329.02C540.32 330.28 537.58 333.44 532.21 339.66C528.73 343.66 527.05 345.66 525.68 347.66C522.31 352.71 520.84 357.77 519.15 369.56C517.47 381.15 516.62 387.05 516.41 394.63C515.99 412.85 518.73 429.17 522.42 447.49C529.47 482.24 532.63 486.88 536.63 510.04C540 529.63 541.16 545.74 541.58 555.96C537.9 560.28 532.63 566.8 526.84 575.23C515.89 591.24 510.31 603.66 506.72 611.03C500.41 623.78 489.56 641.47 470.18 661.79C467.45 662.21 463.13 662.53 458.18 661.27C449.86 659.05 448.7 654.42 440.17 652.21C437.12 651.37 438.49 652.31 424.9 651.68C415.32 651.26 412.47 650.63 409.63 652.74C407 654.63 404.89 658.42 405.84 661.79C407 665.79 412.26 668.74 418.37 667.69C409.95 669.8 404.05 673.16 400.36 675.69C395.84 678.85 387.1 684.85 388.36 690.65C389.1 694.02 393.2 696.65 393.84 697.07C395.94 698.44 398.05 698.97 399.31 699.18C399.42 699.81 400.36 703.7 404.26 706.13C408.47 708.76 412.9 707.39 413.53 707.18C414.48 709.07 416.27 712.02 419.53 714.13C425.43 717.82 433.75 717.39 440.8 713.08C440.7 715.18 441.01 718.13 443.01 720.03C445.96 722.87 451.23 721.92 458.28 720.03C477.13 715.08 486.61 712.55 492.09 706.13C494.4 703.39 499.04 697.07 500.3 686.33C518.1 673.27 531.79 661.27 541.16 652.63C568.33 627.67 590.65 606.61 604.87 573.54C612.14 556.59 614.56 543.01 615.19 538.27C617.19 525.21 616.88 514.26 615.19 496.04C613.4 476.77 610.45 455.07 603.71 420.74C602.87 416.64 597.39 389.05 585.18 356.61C581.91 347.87 577.07 336.18 565.59 330.39C564.01 329.97 551.48 323.86 542.53 329.02Z" fill="#FFFFFF" fill-opacity="1.000000" fill-rule="nonzero"/>
	<path id="Vector" d="M541.58 327.76C518.31 344.4 513.68 377.46 514.62 404C515.78 437.17 526.1 468.87 533.26 500.99C537.47 519.84 540.53 538.9 540.11 558.27C540.11 560.28 543.27 560.28 543.27 558.27C544.21 518.36 530.31 480.66 522.52 442.02C518.52 421.9 516.1 401.16 518.73 380.62C521.05 362.09 527.37 341.87 543.16 330.5C544.74 329.34 543.16 326.6 541.58 327.76Z" fill="#161616" fill-opacity="1.000000" fill-rule="nonzero"/>
	<path id="Vector" d="M551.48 551.32C531.37 559.75 521.68 580.92 511.36 598.71C498.41 621.14 484.93 643.26 466.81 662C465.44 663.48 467.66 665.69 469.03 664.21C485.56 647.15 498.41 627.15 510.31 606.61C521.15 588.08 531.05 563.22 552.22 554.27C554.22 553.53 553.38 550.48 551.48 551.32Z" fill="#161616" fill-opacity="1.000000" fill-rule="nonzero"/>
	<path id="Vector" d="M541.16 332.07C554.43 323.23 569.07 333.86 576.12 345.34C583.18 356.72 587.92 369.88 592.13 382.52C600.98 409.16 605.71 436.96 609.08 464.76C612.35 491.93 617.09 521.1 612.03 548.27C606.98 575.23 589.29 597.87 571.91 618.3C552.11 641.47 529.58 662 504.83 679.69C503.14 680.85 504.72 683.59 506.41 682.43C529.89 665.69 551.48 646.31 570.54 624.72C588.76 603.98 608.14 580.49 614.35 552.9C620.88 523.73 615.61 492.14 612.14 462.87C608.56 433.27 603.19 403.58 593.18 375.36C588.34 361.77 582.97 346.19 572.86 335.55C564.43 326.7 550.64 322.07 539.69 329.34C537.9 330.5 539.48 333.23 541.16 332.07Z" fill="#161616" fill-opacity="1.000000" fill-rule="nonzero"/>
	<path id="Vector" d="M417.32 665.79C414.69 665.27 409.63 664.74 408.16 662.32C408.16 659.9 408.26 657.58 408.26 655.16C409.11 654.63 409.95 654.31 410.9 654.1C412.26 653.68 413.74 653.58 415.21 653.47C421.74 652.74 430.06 651.15 436.38 653.26C441.75 655.05 446.49 658.63 451.75 660.63C457.23 662.63 462.92 663.9 468.71 664.53C470.71 664.74 470.71 661.58 468.71 661.37C463.44 660.74 458.39 659.69 453.44 657.9C448.38 656.11 444.07 653.26 439.22 651.05C431.64 647.58 421.74 649.47 413.84 650.42C409.32 650.94 403.52 652.63 403.1 658.11C402.58 665.37 410.68 667.9 416.27 668.95C418.48 669.16 419.32 666.11 417.32 665.79Z" fill="#161616" fill-opacity="1.000000" fill-rule="nonzero"/>
	<path id="Vector" d="M431.96 667.06C424.8 664.42 417.42 665.69 410.47 668.53C404.37 670.95 397.31 673.69 392.89 678.64C390.15 681.59 384.99 689.28 386.25 693.7C387.62 698.33 394.78 700.86 399.1 700.02C401.1 699.6 400.26 696.54 398.26 696.96C391.94 698.23 388.68 692.86 390.89 688.01C391.52 686.54 392.26 685.17 392.99 683.8C395.63 679.59 399.42 677.27 403.73 675.17C412.26 670.95 421.53 666.74 431.11 670.22C433.01 670.85 433.85 667.79 431.96 667.06Z" fill="#161616" fill-opacity="1.000000" fill-rule="nonzero"/>
	<path id="Vector" d="M436.59 677.17C424.59 678.96 405.31 681.06 398.89 693.28C393.52 703.49 405.74 712.76 415 707.92C416.79 706.97 415.21 704.23 413.42 705.18C407.53 708.23 399.21 703.49 401 696.44C402.15 691.59 407.53 688.65 411.74 686.64C419.74 682.85 428.8 681.48 437.43 680.12C439.43 679.9 438.59 676.85 436.59 677.17Z" fill="#161616" fill-opacity="1.000000" fill-rule="nonzero"/>
	<path id="Vector" d="M507.36 678.01C500.93 680.75 498.72 686.75 496.83 693.07C495.14 698.86 493.04 703.6 487.66 706.86C483.24 709.5 478.08 710.86 473.24 712.55C468.08 714.34 462.92 716.24 457.76 718.03C455.44 718.87 453.02 719.92 450.6 720.55C449.33 720.97 448.07 721.19 446.81 721.29C442.8 719.71 441.65 717.29 443.54 714.23C445.65 710.02 451.12 706.44 454.81 703.81C458.92 700.97 463.23 698.75 467.87 697.07C469.76 696.44 468.92 693.38 467.02 694.02C461.55 695.91 456.49 698.65 451.86 702.02C447.96 704.86 443.22 708.23 440.8 712.55C439.22 715.39 438.91 719.18 441.01 721.82C443.65 725.08 447.86 724.55 451.44 723.5C458.39 721.5 465.23 718.55 472.18 716.13C477.87 714.13 483.98 712.44 489.24 709.39C493.25 707.07 496.19 703.91 497.98 699.6C500.62 693.28 500.83 684.12 508.2 680.96C510.09 680.33 509.25 677.27 507.36 678.01Z" fill="#161616" fill-opacity="1.000000" fill-rule="nonzero"/>
	<path id="Vector" d="M448.81 690.12C440.7 691.07 432.17 692.01 424.48 694.75C419.64 696.44 411.63 700.86 411.11 706.76C410.47 712.97 419.21 715.92 424.06 716.66C431.64 717.82 439.54 715.39 445.75 711.08C447.44 709.92 445.86 707.18 444.17 708.34C439.54 711.5 434.38 713.5 428.69 713.71C423.01 713.92 409.32 709.81 417.42 702.55C425.32 695.38 438.7 694.44 448.81 693.17C450.81 693.07 450.81 689.91 448.81 690.12Z" fill="#161616" fill-opacity="1.000000" fill-rule="nonzero"/>
	<g opacity="0.090000">
		<path id="Vector" d="M551.27 329.13C543.48 334.71 559.38 365.77 570.33 396.31C581.81 428.01 597.92 472.66 591.5 520.05C584.76 569.75 555.48 605.77 537.79 627.46C519.68 649.68 501.35 665.27 487.56 675.48C425.85 690.54 412.9 699.91 413.32 705.92C413.53 708.55 416.48 712.02 419.64 713.71C427.85 718.13 437.96 712.44 439.43 711.6C439.43 714.13 439.86 720.24 443.65 722.24C446.38 723.61 449.44 722.24 452.81 720.87C470.29 713.71 472.29 717.29 483.87 710.23C488.19 707.6 491.35 705.6 494.51 701.7C499.99 694.96 501.25 687.38 501.57 683.27C511.78 675.9 524.21 666.32 537.58 654.31C557.38 636.62 578.02 617.98 595.5 588.6C603.19 575.76 609.82 564.38 613.19 547.64C616.14 532.58 614.77 521.94 612.45 500.99C605.61 436.64 608.03 441.7 606.14 430.96C602.24 409.58 600.76 412.42 588.44 368.09C588.34 367.77 585.5 357.35 578.54 345.45C574.33 338.29 571.59 335.44 568.65 333.44C564.01 329.97 555.06 326.49 551.27 329.13Z" fill="#606060" fill-opacity="1.000000" fill-rule="nonzero"/>
	</g>
	<g opacity="0.100000">
		<path id="Vector" d="M612.14 501.3C609.82 501.09 608.14 513.62 601.82 533C590.87 566.49 577.07 589.87 562.54 609.56C548.01 629.15 528.42 653.79 503.25 680.64C535.37 656.63 558.75 633.57 574.33 616.51C599.61 588.92 605.92 575.65 609.5 565.44C620.25 534.26 615.82 501.62 612.14 501.3Z" fill="#606060" fill-opacity="1.000000" fill-rule="nonzero"/>
	</g>
	<g opacity="0.110000">
		<path id="Vector" d="M444.8 718.97C444.28 717.18 451.86 713.6 467.02 706.23C479.87 700.02 490.3 694.75 497.46 691.17C496.62 696.54 494.51 703.39 488.93 706.86C487.35 707.81 486.3 708.13 483.98 708.86C470.18 713.18 468.18 716.97 458.39 718.97C453.12 720.13 445.23 720.66 444.8 718.97Z" fill="#606060" fill-opacity="1.000000" fill-rule="nonzero"/>
	</g>
	<g opacity="0.100000">
		<path id="Vector" d="M414.9 703.6C420.48 704.02 428.69 704.13 438.49 702.65C455.12 700.12 467.66 694.02 467.97 694.75C468.18 695.28 462.92 697.39 454.49 702.33C444.59 708.13 444.59 709.6 439.12 711.81C436.49 712.87 423.22 718.34 417.53 712.44C415.11 709.92 414.79 706.02 414.9 703.6Z" fill="#606060" fill-opacity="1.000000" fill-rule="nonzero"/>
	</g>
	<path id="Vector" d="M278.95 149.16C277.89 154 277.68 158.95 277.89 168.64C278.1 177.48 278.73 196.86 286.95 220.55C291.37 233.4 297.16 250.15 312.01 267.42C312.01 267.42 333.07 291.74 364.24 301.54C372.88 304.27 379.72 305.01 386.89 303.54C395.1 301.96 401 297.96 404.26 295.32C406.05 298.17 408.58 302.8 409.84 309.01C411.84 318.6 409 322.81 412.26 330.18C413 331.86 415.84 337.87 422.37 341.13C429.01 344.4 435.54 342.82 441.22 341.45C445.44 340.39 454.81 337.55 462.18 329.13C464.71 326.18 468.71 321.65 468.81 315.44C468.81 311.33 467.13 308.28 466.39 306.91C464.6 303.64 462.18 294.69 457.34 276.79C454.07 264.78 454.49 255.2 455.23 236.14C455.65 226.45 456.7 213.6 459.76 198.55C461.86 199.7 465.87 201.39 470.6 200.55C478.92 199.07 483.03 190.75 484.93 186.86C485.45 185.8 494.3 166.95 483.56 153.68C482.5 152.42 473.97 142.21 464.39 145.15C457.44 147.26 454.7 154.84 454.28 156.11C452.07 153.47 449.86 150.42 447.65 146.84C442.28 137.89 439.75 129.36 438.59 122.93C417.32 123.88 400.58 121.46 389.1 119.14C365.4 114.3 358.14 108.19 337.29 107.98C324.54 107.77 309.38 107.66 296.64 117.88C283.37 128.73 279.89 144.73 278.95 149.16Z" fill="#FFFFFF" fill-opacity="1.000000" fill-rule="nonzero"/>
	<path id="Vector" d="M276.63 158.84C274.73 199.91 285.79 242.46 315.17 272.47C328.02 285.63 343.81 296.06 361.4 301.75C370.46 304.69 380.57 307.12 389.94 304.38C399.63 301.43 408.68 294.9 417 289.11C435.85 275.95 452.6 258.36 457.23 235.19C457.65 233.19 454.6 232.35 454.18 234.35C450.07 254.78 436.17 270.89 419.85 283.21C412.16 289 403.84 294.59 395.2 298.9C385.1 303.96 375.09 302.69 364.56 299.53C329.18 288.9 302.01 259.52 289.37 225.4C281.58 204.23 278.84 181.49 279.89 158.95C279.89 156.84 276.73 156.84 276.63 158.84Z" fill="#161616" fill-opacity="1.000000" fill-rule="nonzero"/>
	<path id="Vector" d="M404.26 297.43C407.63 306.59 409.84 315.96 411 325.76C411.21 327.76 414.37 327.76 414.16 325.76C413 315.75 410.79 306.06 407.31 296.69C406.58 294.69 403.52 295.53 404.26 297.43Z" fill="#161616" fill-opacity="1.000000" fill-rule="nonzero"/>
	<path id="Vector" d="M453.97 238.04C452.91 250.57 453.54 263.2 455.86 275.63C457.13 282.05 458.81 288.37 460.92 294.59C463.23 301.32 466.71 308.17 466.29 315.44C465.55 327.44 454.6 336.18 443.96 339.55C432.48 343.24 412.16 341.24 413.63 324.7C413.84 322.7 410.68 322.7 410.47 324.7C409.42 336.92 421 344.29 431.96 344.61C443.96 344.82 456.81 339.03 464.18 329.44C473.66 316.91 467.34 304.27 463.13 291C457.55 273.95 455.65 256.04 457.13 238.14C457.23 236.03 454.07 236.03 453.97 238.04Z" fill="#161616" fill-opacity="1.000000" fill-rule="nonzero"/>
	<path id="Vector" d="M407.84 297.01C422.69 289.21 435.12 277.74 443.86 263.52C444.91 261.83 442.17 260.15 441.12 261.94C432.59 275.84 420.58 286.79 406.16 294.37C404.47 295.32 406.05 297.96 407.84 297.01Z" fill="#161616" fill-opacity="1.000000" fill-rule="nonzero"/>
	<path id="Vector" d="M408.05 298.9C417.21 294.37 424.8 287.74 431.96 280.47C438.59 273.73 444.7 266.57 448.38 257.73C449.12 255.83 446.07 254.99 445.33 256.89C441.65 265.73 435.12 272.79 428.48 279.53C421.95 286.16 414.9 292.06 406.47 296.16C404.58 297.01 406.16 299.75 408.05 298.9Z" fill="#161616" fill-opacity="1.000000" fill-rule="nonzero"/>
	<path id="Vector" d="M409 300.8C427.22 290.69 441.75 275.31 450.39 256.36C451.23 254.57 448.49 252.88 447.65 254.78C439.22 273.21 425.11 288.27 407.42 298.06C405.63 299.01 407.31 301.75 409 300.8Z" fill="#161616" fill-opacity="1.000000" fill-rule="nonzero"/>
	<path id="Vector" d="M338.02 172.22C338.23 191.07 339.71 209.81 342.24 228.45C342.34 229.4 343.81 229.93 344.55 229.4C350.87 224.77 356.45 219.5 361.61 213.6C362.98 212.02 360.66 209.81 359.4 211.39C354.45 217.08 349.08 222.24 342.97 226.77C343.71 227.08 344.55 227.4 345.29 227.72C342.76 209.39 341.39 190.86 341.18 172.32C341.18 170.11 338.02 170.11 338.02 172.22Z" fill="#161616" fill-opacity="1.000000" fill-rule="nonzero"/>
	<path id="Vector" d="M313.8 196.65C311.27 195.39 309.27 193.49 308.12 190.86C307.17 188.86 305.38 181.27 310.01 182.54C312.64 183.28 314.75 187.38 315.49 189.7C315.91 190.96 316.33 192.54 316.01 193.91C316.12 195.39 315.38 196.44 313.8 196.97C313.06 196.44 312.54 195.81 312.01 195.07C310.75 193.49 308.54 195.7 309.8 197.28C313.06 201.49 318.12 200.86 319.07 195.28C320.01 189.59 317.07 183.59 312.54 180.33C307.8 176.96 304.11 179.91 303.9 185.28C303.69 191.17 307.17 196.54 312.33 199.18C314.01 200.34 315.59 197.6 313.8 196.65Z" fill="#161616" fill-opacity="1.000000" fill-rule="nonzero"/>
	<path id="Vector" d="M306.22 183.91C307.38 189.38 310.01 194.23 313.91 198.23C315.07 199.49 316.85 198.12 316.54 196.65C315.59 191.59 310.64 187.7 311.06 182.43C310.12 182.85 309.27 183.17 308.33 183.59C311.38 187.17 313.17 191.17 314.01 195.81C314.54 195.18 315.07 194.44 315.49 193.81C312.22 193.81 310.33 190.75 308.85 188.33C307.8 186.65 305.06 188.22 306.11 189.91C308.22 193.39 310.96 196.97 315.49 196.97C316.65 196.97 317.17 195.91 316.96 194.96C316.12 189.8 313.8 185.28 310.54 181.38C309.59 180.22 307.9 181.27 307.8 182.54C307.38 188.33 312.43 192.12 313.38 197.6C314.22 197.07 315.17 196.54 316.01 196.02C312.43 192.33 310.22 188.01 309.06 183.06C308.85 181.06 305.8 181.91 306.22 183.91Z" fill="#161616" fill-opacity="1.000000" fill-rule="nonzero"/>
	<path id="Vector" d="M391.1 187.49C388.57 186.22 386.57 184.33 385.41 181.7C384.46 179.7 382.67 172.11 387.31 173.38C389.94 174.11 392.05 178.22 392.78 180.54C393.2 181.8 393.62 183.38 393.31 184.75C393.41 186.22 392.68 187.28 391.1 187.8C390.36 187.28 389.83 186.65 389.31 185.91C388.04 184.33 385.83 186.54 387.1 188.12C390.36 192.33 395.42 191.7 396.36 186.12C397.31 180.43 394.36 174.43 389.83 171.17C385.1 167.8 381.41 170.74 381.2 176.11C380.99 182.01 384.46 187.38 389.62 190.02C391.31 191.17 392.89 188.44 391.1 187.49Z" fill="#161616" fill-opacity="1.000000" fill-rule="nonzero"/>
	<path id="Vector" d="M383.41 174.64C384.57 180.12 387.2 184.96 391.1 188.96C392.26 190.23 394.05 188.86 393.73 187.38C392.78 182.33 387.83 178.43 388.25 173.17C387.31 173.59 386.46 173.9 385.52 174.32C388.57 177.9 390.36 181.91 391.2 186.54C391.73 185.91 392.26 185.17 392.68 184.54C389.41 184.54 387.52 181.49 386.04 179.06C384.99 177.38 382.25 178.96 383.3 180.64C385.41 184.12 388.15 187.7 392.68 187.7C393.84 187.7 394.36 186.65 394.15 185.7C393.31 180.54 390.99 176.01 387.73 172.11C386.78 170.95 385.1 172.01 384.99 173.27C384.57 179.06 389.62 182.85 390.57 188.33C391.41 187.8 392.36 187.28 393.2 186.75C389.62 183.06 387.41 178.75 386.25 173.8C386.04 171.9 382.99 172.74 383.41 174.64Z" fill="#161616" fill-opacity="1.000000" fill-rule="nonzero"/>
	<path id="Vector" d="M292.32 164.53C294.95 154.42 307.8 152.1 313.91 160.63C315.07 162.32 317.8 160.74 316.65 159.05C309.06 148.42 292.74 150.84 289.37 163.69C288.74 165.69 291.79 166.43 292.32 164.53Z" fill="#161616" fill-opacity="1.000000" fill-rule="nonzero"/>
	<path id="Vector" d="M370.56 150.31C376.99 136.31 393.94 143.15 401.1 152.42C402.37 154 405.1 152.42 403.84 150.84C399.31 144.84 392.99 139.78 385.2 139.15C378.04 138.52 370.88 142.1 367.82 148.73C366.98 150.52 369.72 152.1 370.56 150.31Z" fill="#161616" fill-opacity="1.000000" fill-rule="nonzero"/>
	<path id="Vector" d="M333.39 255.31C326.75 243.09 342.34 244.25 350.03 243.51C358.14 242.77 366.03 240.25 373.09 236.14C380.67 231.82 385.52 225.08 392.15 219.82C394.99 217.5 399.21 214.87 403.1 216.97C406.37 218.76 407.63 223.4 407.95 226.66C408.47 231.61 407.21 236.67 405.42 241.3C400.36 254.88 390.89 266.15 376.88 270.79C360.98 275.95 342.45 269.63 333.39 255.31C332.34 253.62 329.6 255.2 330.65 256.89C338.13 268.79 352.24 276.26 366.25 275.74C380.57 275.31 394.26 266.99 402.15 255.31C408.79 245.41 417.64 224.24 406.05 214.97C399.63 209.81 391.83 215.6 387.1 220.24C379.51 227.72 372.35 234.24 362.03 237.72C356.45 239.61 350.76 240.35 344.87 240.56C340.97 240.67 336.97 240.67 333.39 242.56C327.18 245.93 327.6 251.41 330.65 256.89C331.6 258.68 334.34 257.1 333.39 255.31Z" fill="#161616" fill-opacity="1.000000" fill-rule="nonzero"/>
	<path id="Vector" d="M331.6 255.52C360.66 257.41 388.46 243.2 403.31 218.03C404.37 216.24 401.63 214.66 400.58 216.45C386.25 240.77 359.61 254.25 331.6 252.36C329.6 252.25 329.6 255.41 331.6 255.52Z" fill="#161616" fill-opacity="1.000000" fill-rule="nonzero"/>
	<path id="Vector" d="M452.18 245.2C444.91 268.15 428.9 287.32 407.74 298.9C405.95 299.85 407.53 302.59 409.32 301.64C431.11 289.64 447.65 269.84 455.12 246.04C455.76 244.14 452.81 243.3 452.18 245.2Z" fill="#161616" fill-opacity="1.000000" fill-rule="nonzero"/>
	<path id="Vector" d="M455.34 158.53C456.49 150.1 465.23 146.1 473.03 148.73C480.82 151.47 485.14 159.05 486.19 166.85C487.35 174.75 485.66 183.17 481.66 190.12C477.56 197.18 468.29 203.71 460.71 196.97C459.23 195.6 456.91 197.81 458.49 199.18C465.76 205.71 475.87 202.65 481.66 195.7C488.4 187.59 491.03 175.69 489.24 165.37C487.56 155.69 481.14 146.63 470.92 144.84C462.39 143.36 453.54 148.73 452.28 157.58C452.07 159.69 455.12 160.53 455.34 158.53Z" fill="#161616" fill-opacity="1.000000" fill-rule="nonzero"/>
	<path id="Vector" d="M431.96 147.37C432.48 150.21 432.9 156 437.12 158.53C441.54 161.16 447.86 158.84 452.6 156.53C452.81 156 456.49 146.63 465.76 145.05C473.24 143.78 478.82 148.42 480.61 149.79C487.03 155.05 488.3 162.42 489.03 166.64C490.51 174.85 488.4 181.27 487.35 184.96C486.4 188.12 485.14 191.91 481.77 195.81C480.4 197.39 478.08 200.02 474.4 201.6C467.97 204.23 461.55 201.6 459.65 200.76C457.76 202.34 455.23 204.65 453.12 208.02C453.12 208.02 452.91 208.34 452.7 208.65C449.44 214.13 452.28 226.24 452.7 232.98C452.91 236.98 452.49 242.88 449.02 250.25C452.91 252.04 465.66 257.2 481.03 253.2C485.45 252.04 496.83 248.99 505.04 238.04C514.2 225.82 512.83 212.45 512.41 209.29C517.68 204.55 520.31 199.81 521.57 196.86C522.42 194.96 528.1 181.59 522.42 175.69C520.1 173.38 518.1 174.32 516.2 172.32C513.68 169.8 512.94 163.69 520.63 148.21C522.31 148.21 523.26 147.68 523.89 147.26C526.84 144.84 525.68 137.57 520.84 129.25C527.37 125.67 533.89 122.09 540.42 118.62C535.37 118.2 528.1 116.93 521.47 112.3C511.67 105.56 510.41 96.61 503.88 87.55C498.83 80.5 489.77 71.97 471.76 66.28C475.87 63.44 481.66 59.01 487.66 52.8C492.09 48.17 501.78 37 499.77 34.58C498.41 33 492.72 36.37 485.66 39C472.61 43.74 461.65 43.01 444.7 41.74C421.85 39.95 419.43 35.95 400.36 33.63C387.83 32.05 364.14 29.42 337.81 38.69C313.06 47.43 298.11 62.49 291.58 69.12C285.58 75.23 270.63 91.87 262.62 117.14C258.73 129.36 255.04 142 261.57 153.37C265.68 160.42 272.1 164.21 276.42 166.22C276 159.27 276.1 145.79 284.32 133.04C296.53 114.19 318.33 109.88 334.34 106.72C347.08 104.19 376.14 98.5 401.94 114.51C411.63 120.51 429.22 131.36 431.96 147.37Z" fill="#5222D0" fill-opacity="1.000000" fill-rule="nonzero"/>
	<path id="Vector" d="M331.81 254.99C333.18 257.62 335.92 261.73 340.55 265.52C341.6 266.36 346.55 270.26 354.13 272.37C365.93 275.52 376.25 272.26 380.25 270.68C392.47 265.84 398.57 256.99 401.1 253.09C403.84 248.99 409 241.19 408.68 230.35C408.47 223.82 406.37 218.76 404.89 215.82C403.84 216.87 402.37 218.45 400.58 220.34C394.47 226.87 390.57 231.82 389.31 233.4C381.62 242.56 370.04 247.72 366.35 249.3C352.45 255.41 339.5 255.62 331.81 254.99Z" fill="#000000" fill-opacity="1.000000" fill-rule="nonzero"/>
	<path id="Vector" d="M290.11 73.97C284.95 79.13 281.68 84.5 279.79 87.76C273.47 98.4 271.26 107.66 269.68 114.3C267.78 122.62 265.78 135.15 267.04 150.63C267.36 154.32 269.57 157.26 272.63 158.21C274.73 158.84 276.52 158.32 277.37 158C278 154 279.58 148 283.47 141.68C290.32 130.41 300.22 125.15 306.01 122.2C317.8 116.19 328.23 115.25 335.18 114.62C351.08 113.35 362.98 116.72 365.61 117.46C376.88 120.72 385.1 125.99 390.57 129.46C400.79 135.89 402.26 139.15 411.74 143.26C422.27 147.89 428.69 147.58 430.8 147.37C434.06 147.16 440.07 146.63 445.65 142.21C450.7 138.2 452.6 133.04 453.33 130.73C463.23 135.04 470.5 139.57 475.34 142.94C486.82 150.84 493.25 158.11 508.73 166.85C511.36 168.32 513.68 169.48 515.04 170.22C516.73 163.27 518.41 156.32 520.1 149.47C517.89 147.89 514.62 145.58 510.52 142.73C495.67 132.41 485.56 125.46 472.39 118.62C468.6 116.62 463.13 113.98 456.18 111.03C457.65 105.35 459.55 94.92 455.86 83.23C454.49 78.81 452.28 72.07 446.07 66.59C442.17 63.22 438.28 61.65 435.96 60.91C409.53 51.43 381.41 51.01 381.41 51.01C366.03 50.8 345.39 50.69 320.96 57.75C305.9 62.07 297.06 67.02 290.11 73.97Z" fill="#FFFFFF" fill-opacity="1.000000" fill-rule="nonzero"/>
	<path id="Vector" d="M278.84 157.79C286.21 117.56 341.81 107.14 373.93 121.67C382.78 125.67 391.1 130.73 399.31 135.78C406.47 140.2 413.84 144.73 422.06 146.73C434.17 149.68 449.23 145.89 453.54 133.04C454.18 131.15 451.12 130.31 450.49 132.2C447.54 141.05 437.85 145.05 429.11 144.73C419.32 144.31 410.58 138.94 402.47 134.1C387.2 124.83 371.41 114.51 353.08 112.72C322.33 109.77 282.21 122.72 275.89 157.05C275.36 158.84 278.42 159.79 278.84 157.79Z" fill="#161616" fill-opacity="1.000000" fill-rule="nonzero"/>
	<path id="Vector" d="M275.68 155.05C274.1 154.74 272.52 154.42 270.84 154.11C270.52 153.26 270.1 152.42 269.78 151.58C269.36 150.52 269.15 149.37 268.94 148.21C268.52 145.79 268.41 143.26 268.31 140.73C268.2 135.89 268.41 130.94 268.84 126.09C269.57 115.67 271.47 105.24 276 95.76C284.32 78.18 301.17 66.38 319.17 60.07C339.08 53.12 360.77 51.64 381.73 52.17C401.84 52.69 424.48 54.48 441.96 65.33C453.54 72.49 454.91 86.18 455.23 98.82C455.55 111.03 453.65 123.04 449.75 134.52C449.12 136.41 452.18 137.26 452.81 135.36C456.81 123.57 458.81 111.25 458.39 98.82C458.07 88.71 457.44 75.44 450.07 67.75C442.59 59.85 430.48 55.96 420.16 53.54C407.95 50.69 395.2 49.53 382.67 49.11C338.34 47.64 280.31 57.85 268.31 108.4C265.36 120.51 263.99 134.52 265.57 146.94C266.1 150.84 267.15 156 270.52 158.53C273.26 160.53 277.05 159.9 278.42 156.74C279.26 154.84 276.52 153.26 275.68 155.05Z" fill="#161616" fill-opacity="1.000000" fill-rule="nonzero"/>
	<path id="Vector" d="M271.36 152.42C278.63 125.57 302.22 105.24 329.28 100.4C344.13 97.77 359.61 99.56 373.62 105.03C388.15 110.61 398.68 120.3 410.05 130.62C420.27 139.99 434.06 148.1 447.96 141.68C449.75 140.84 448.17 138.1 446.38 138.94C428.9 147.05 414.27 129.88 402.89 119.46C392.57 110.09 380.15 103.14 366.67 99.35C340.34 91.97 312.01 97.45 291.27 115.46C280.31 125.04 272.21 137.57 268.41 151.58C267.78 153.58 270.84 154.42 271.36 152.42Z" fill="#161616" fill-opacity="1.000000" fill-rule="nonzero"/>
	<path id="Vector" d="M452.49 130.52C473.66 143.36 494.3 157.05 514.52 171.27C516.2 172.43 517.78 169.69 516.1 168.53C495.88 154.21 475.24 140.63 454.07 127.78C452.39 126.73 450.81 129.46 452.49 130.52Z" fill="#161616" fill-opacity="1.000000" fill-rule="nonzero"/>
	<path id="Vector" d="M456.39 110.93C477.87 122.93 498.72 136.1 518.73 150.42C520.42 151.58 521.99 148.84 520.31 147.68C500.2 133.36 479.45 120.2 457.97 108.19C456.18 107.14 454.6 109.88 456.39 110.93Z" fill="#161616" fill-opacity="1.000000" fill-rule="nonzero"/>
	<path id="Vector" d="M518.1 148.42C515.89 155.16 514.41 161.9 513.57 168.95C513.36 170.95 516.52 170.95 516.73 168.95C517.47 162.21 518.94 155.69 521.15 149.26C521.78 147.37 518.73 146.52 518.1 148.42Z" fill="#161616" fill-opacity="1.000000" fill-rule="nonzero"/>
	<path id="Vector" d="M326.97 100.93C344.03 84.6 361.19 68.49 378.57 52.38C380.04 51.01 377.83 48.8 376.35 50.17C359.08 66.17 341.81 82.39 324.75 98.71C323.28 100.08 325.49 102.29 326.97 100.93Z" fill="#161616" fill-opacity="1.000000" fill-rule="nonzero"/>
	<path id="Vector" d="M369.72 102.29C385.1 87.02 400.47 71.75 415.84 56.38C417.32 54.91 415 52.69 413.63 54.17C398.26 69.44 382.88 84.71 367.51 100.08C366.03 101.56 368.25 103.77 369.72 102.29Z" fill="#161616" fill-opacity="1.000000" fill-rule="nonzero"/>
	<g opacity="0.150000">
		<path id="Vector" d="M301.17 123.99C300.64 119.78 300.11 115.67 299.59 111.46C304.54 108.09 312.75 103.24 323.6 100.5C346.87 94.5 366.46 101.87 375.41 105.24C382.15 107.77 390.15 110.72 398.47 117.77C404.89 123.25 404.79 125.57 412.58 131.89C419.74 137.78 426.69 143.26 435.64 142.84C441.01 142.63 445.23 140.31 447.65 138.63C449.96 135.36 452.18 131.99 454.49 128.73C456.91 129.04 472.08 131.36 479.03 143.89C480.08 145.68 479.77 146.42 482.19 153.26C486.51 165.58 487.66 165.9 488.51 170.01C488.72 170.95 490.93 184.33 481.66 193.07C474.5 199.91 464.92 199.49 462.81 199.39C459.76 207.81 459.23 215.08 459.13 219.82C459.13 227.08 459.02 235.93 464.92 243.83C467.02 246.67 471.76 253.09 480.08 253.73C490.09 254.46 496.72 246.14 497.35 245.41C483.45 248.04 469.45 250.67 455.55 253.2C455.44 264.36 457.13 273 458.7 278.79C462.5 293.11 467.97 299.32 467.55 311.22C467.34 318.6 464.81 324.6 462.81 328.49C456.39 310.49 449.86 292.58 443.44 274.58C436.49 279.95 429.53 285.42 422.48 290.79C425.22 284.9 428.06 278.89 430.8 273C434.38 257.41 435.12 243.93 435.01 233.82C434.8 218.97 430.8 204.23 423.01 174.75C418.27 157.05 415 147.58 406.26 139.68C403.21 136.94 399.73 134.94 392.68 130.83C377.2 121.88 369.51 117.35 360.24 115.14C340.97 110.61 323.91 115.77 315.8 118.3C309.59 120.09 304.64 122.2 301.17 123.99Z" fill="#606060" fill-opacity="1.000000" fill-rule="nonzero"/>
	</g>
	<g opacity="0.130000">
		<path id="Vector" d="M337.81 171.48C335.5 181.59 333.49 192.75 332.02 204.97C331.28 211.71 330.76 218.13 330.44 224.35C334.97 225.4 339.5 226.45 344.03 227.5C341.92 208.87 339.92 190.23 337.81 171.48Z" fill="#606060" fill-opacity="1.000000" fill-rule="nonzero"/>
	</g>
	<g opacity="0.090000">
		<path id="Vector" d="M449.86 186.01C448.49 193.49 446.7 201.28 444.38 209.39C433.64 246.57 415.74 275.31 399.42 296.06C401.52 295.11 436.06 278.68 447.12 253.83C450.07 247.3 452.49 241.83 452.6 234.14C452.81 224.24 449.12 220.45 451.65 213.08C454.18 206.02 459.13 205.07 459.44 199.81C459.76 194.23 454.49 189.38 449.86 186.01Z" fill="#606060" fill-opacity="1.000000" fill-rule="nonzero"/>
	</g>
	<g opacity="0.100000">
		<path id="Vector" d="M309.06 113.04C308.43 117.56 313.59 121.67 316.22 123.78C330.97 135.68 344.34 125.15 370.35 130.41C392.36 134.94 396.57 145.36 419.32 145.68C427.32 145.79 433.85 144.63 438.17 143.68C435.12 143.05 430.48 141.68 425.43 139.05C416.69 134.52 411.53 128.83 409.63 126.83C399.42 115.98 381.09 104.93 367.82 100.82C342.02 92.71 310.54 102.82 309.06 113.04Z" fill="#606060" fill-opacity="1.000000" fill-rule="nonzero"/>
	</g>
</svg>
