<svg width="201.000000" height="40.000000" viewBox="0 0 201 40" fill="none" xmlns="http://www.w3.org/2000/svg" xmlns:xlink="http://www.w3.org/1999/xlink">
	<desc>
			Created with Pixso.
	</desc>
	<defs/>
	<circle id="Ellipse 3" cx="26.000000" cy="26.000000" r="14.000000" fill="#EC615B" fill-opacity="1.000000"/>
	<g style="mix-blend-mode:multiply">
		<circle id="Ellipse 6" cx="14.000000" cy="14.000000" r="14.000000" fill="#5222D0" fill-opacity="1.000000"/>
	</g>
	<path id="Виарушка" d="M103.41 27L99.04 27L98.01 24.8L91.11 24.8L90.09 27L85.71 27L85.71 26.35L93.59 9.27L95.51 9.27L103.41 26.35L103.41 27ZM200.61 27L196.23 27L195.21 24.8L188.31 24.8L187.28 27L182.91 27L182.91 26.35L190.78 9.27L192.71 9.27L200.61 26.35L200.61 27ZM78.81 27L78.81 18.4L69.98 27.02L68.38 27.02L68.38 9.5L72.96 9.5L72.96 18.07L81.81 9.42L83.43 9.42L83.43 27L78.81 27ZM58.7 9.5C61.72 9.5 64.15 11.85 64.15 14.87C64.15 15.92 63.62 17.2 62.77 17.9C64.19 18.62 64.87 19.92 64.87 21.47C64.85 24.52 63 27 59.42 27L51.22 27L51.22 9.5L58.7 9.5ZM110.19 22.52L110.19 27L105.71 27L105.71 9.5L113.41 9.5C117.6 9.51 119.69 12.76 119.69 16.02C119.69 19.27 117.6 22.52 113.41 22.52L110.19 22.52ZM128.97 27L124.15 27L124.15 26.52L126.9 20.87L121 10.17L121 9.5L126 9.5L129.3 15.95L129.42 15.95L132.42 9.5L137.27 9.5L137.27 10.17L128.97 27ZM161.9 27L139.72 27L139.72 9.5L144.3 9.5L144.3 22.87L148.52 22.87L148.52 9.5L153.1 9.5L153.1 22.87L157.32 22.87L157.32 9.5L161.9 9.5L161.9 27ZM170.93 20.32L170.93 27L166.38 27L166.38 9.5L170.93 9.5L170.93 16.12L171.26 16.12C175.32 16.12 175.51 13.35 175.51 10.39C175.51 10.24 175.51 10.09 175.51 9.94C175.51 9.79 175.51 9.64 175.51 9.5L180.11 9.5C180.11 9.59 180.11 9.69 180.11 9.79C180.11 9.88 180.11 9.98 180.11 10.08C180.11 13.43 180.02 16.49 176.73 18.6L181.48 26.3L181.48 27L176.51 27L172.66 20.22C172.06 20.32 171.51 20.32 170.93 20.32ZM110.19 18.5L113.39 18.5C114.63 18.5 115.28 17.21 115.28 15.95C115.28 14.72 114.67 13.51 113.39 13.5C112.68 13.48 111.94 13.48 111.23 13.49C110.87 13.49 110.52 13.5 110.19 13.5L110.19 18.5ZM59.7 14.91C59.7 14.21 59.25 13.5 58.35 13.5L55.55 13.5L55.55 16.32L58.37 16.32C59.25 16.32 59.7 15.62 59.7 14.91ZM92.56 20.97L96.56 20.97L94.54 16.37L92.56 20.97ZM189.76 20.97L193.76 20.97L191.73 16.37L189.76 20.97ZM60.46 21.55C60.46 20.8 60 20.04 59.1 20.04L55.55 20.04L55.55 23.02L59.12 23.02C60.01 23.02 60.46 22.29 60.46 21.55Z" fill="#000000" fill-opacity="1.000000" fill-rule="evenodd"/>
</svg>
